<?xml version="1.0" encoding="UTF-8"?><svg id="Layer_2" xmlns="http://www.w3.org/2000/svg" viewBox="0 0 1303.1111 243.3149"><g id="Components"><g id="a04c0499-f94e-419a-b3a8-6c7222f95b88_7"><path d="m121.6582,0C86.526,0,0,86.5231,0,121.6568s86.526,121.6582,121.6582,121.6582,121.6596-86.526,121.6596-121.6582S156.7918,0,121.6582,0Zm-18.9584,191.2243c-14.8148-4.037-54.646-73.7111-50.6083-88.5259,4.0377-14.8155,73.7111-54.6453,88.5259-50.6077,14.8155,4.037,54.6466,73.7098,50.609,88.5253-4.0377,14.8155-73.7118,54.646-88.5266,50.6083Z" style="fill:#836ef9;"/><path d="m420.8125,153.9232v-.0445l-69.1319-127.5066c-1.3608-2.5098-5.1217-1.9087-5.6324.9002l-34.4287,189.3689c-.3374,1.8558,1.0883,3.5641,2.9746,3.5641h26.6373c1.4615,0,2.7138-1.0455,2.9747-2.4835l20.0497-110.4935,53.8912,102.7389c1.1323,2.1586,4.2224,2.1586,5.3547,0l53.8912-102.7389,20.0497,110.4935c.2609,1.438,1.5132,2.4835,2.9747,2.4835h26.6373c1.8862,0,3.312-1.7083,2.9746-3.5641l-34.4287-189.3689c-.5107-2.8089-4.2716-3.41-5.6324-.9002l-69.1556,127.5511Z" style="fill:#fff;"/><path d="m642.0341,29.9402c-54.8374,0-97.7944,42.6131-97.7944,97.0237s42.957,97.0475,97.7944,97.0475c54.6952,0,97.5454-42.625,97.5454-97.0475s-42.8503-97.0237-97.5454-97.0237Zm0,161.5837c-35.7599,0-63.7774-28.3613-63.7774-64.56s28.0175-64.5363,63.7774-64.5363c35.6177,0,63.5284,28.3495,63.5284,64.5363s-27.9108,64.56-63.5284,64.56Z" style="fill:#fff;"/><path d="m890.3054,149.2191l-114.669-123.4226c-1.87-2.0128-5.2382-.6896-5.2382,2.0578v189.3278c0,1.6697,1.3536,3.0233,3.0233,3.0233h27.7214c1.6697,0,3.0233-1.3536,3.0233-3.0233v-112.6867l114.4158,123.6557c1.8679,2.0188,5.2424.6971,5.2424-2.0533V36.7695c0-1.6697-1.3536-3.0233-3.0233-3.0233h-27.4724c-1.6697,0-3.0233,1.3536-3.0233,3.0233v112.4495Z" style="fill:#fff;"/><path d="m953.2206,220.2054h29.766c1.1791,0,2.2506-.6855,2.7448-1.7559l22.298-48.2914h71.3065l21.7956,48.2682c.489,1.083,1.5671,1.7791,2.7554,1.7791h32.2972c2.2297,0,3.6923-2.3312,2.7222-4.3387l-91.4818-189.3161c-1.1004-2.2772-4.3439-2.2772-5.4443,0l-91.4818,189.3161c-.9701,2.0076.4925,4.3387,2.7222,4.3387Zm68.7879-80.0093l22.1603-48.091,21.7453,48.091h-43.9055Z" style="fill:#fff;"/><path d="m1211.1621,33.7462h-45.7435c-1.6697,0-3.0233,1.3536-3.0233,3.0233v180.4125c0,1.6697,1.3536,3.0233,3.0233,3.0233h45.7435c56.7108,0,91.9491-35.7244,91.9491-93.2414s-35.2382-93.2177-91.9491-93.2177Zm0,154.4697h-14.7498v-122.7292h14.7498c36.8152,0,57.9321,22.4092,57.9321,61.4772,0,38.9257-21.1169,61.2519-57.9321,61.2519Z" style="fill:#fff;"/></g></g></svg>